<?xml version="1.0" standalone="yes"?>

<svg version="1.1" viewBox="0.0 0.0 960.0 720.0" fill="none" stroke="none" stroke-linecap="square" stroke-miterlimit="10" xmlns="http://www.w3.org/2000/svg" xmlns:xlink="http://www.w3.org/1999/xlink"><clipPath id="p.0"><path d="m0 0l960.0 0l0 720.0l-960.0 0l0 -720.0z" clip-rule="nonzero"></path></clipPath><g clip-path="url(#p.0)"><path fill="#000000" fill-opacity="0.0" d="m0 0l960.0 0l0 720.0l-960.0 0z" fill-rule="nonzero"></path><path fill="#000000" d="m1.2467191 0l960.0 0l0 720.0l-960.0 0z" fill-rule="nonzero"></path><path stroke="#000000" stroke-width="1.0" stroke-linejoin="round" stroke-linecap="butt" d="m1.2467191 0l960.0 0l0 720.0l-960.0 0z" fill-rule="nonzero"></path><path fill="#000000" fill-opacity="0.0" d="m483.41995 12.732284l258.4882 0l0 53.32283l-258.4882 0z" fill-rule="nonzero"></path><path stroke="#ffffff" stroke-width="1.0" stroke-linejoin="round" stroke-linecap="butt" d="m483.41995 12.732284l258.4882 0l0 53.32283l-258.4882 0z" fill-rule="nonzero"></path><path fill="#ffffff" d="m518.647 50.141823l0 -17.421875l4.609375 0l0 2.046875l-2.140625 0l0 13.328125l2.140625 0l0 2.046875l-4.609375 0zm6.2283325 -3.828125l0 -13.59375l4.421875 0q2.5 0 3.265625 0.203125q1.15625 0.296875 1.9375 1.328125q0.796875 1.015625 0.796875 2.640625q0 1.25 -0.453125 2.109375q-0.453125 0.859375 -1.15625 1.34375q-0.703125 0.484375 -1.421875 0.640625q-0.984375 0.203125 -2.84375 0.203125l-1.796875 0l0 5.125l-2.75 0zm2.75 -11.296875l0 3.859375l1.5 0q1.625 0 2.171875 -0.21875q0.546875 -0.21875 0.859375 -0.671875q0.3125 -0.453125 0.3125 -1.046875q0 -0.75 -0.4375 -1.234375q-0.4375 -0.484375 -1.09375 -0.59375q-0.5 -0.09375 -1.984375 -0.09375l-1.328125 0zm18.396667 6.296875l2.671875 0.84375q-0.609375 2.21875 -2.046875 3.3125q-1.421875 1.078125 -3.609375 1.078125q-2.703125 0 -4.453125 -1.84375q-1.734375 -1.859375 -1.734375 -5.078125q0 -3.390625 1.75 -5.265625q1.75 -1.875 4.609375 -1.875q2.5 0 4.046875 1.46875q0.9375 0.875 1.390625 2.5l-2.71875 0.65625q-0.234375 -1.0625 -1.0 -1.671875q-0.765625 -0.609375 -1.859375 -0.609375q-1.515625 0 -2.453125 1.09375q-0.9375 1.078125 -0.9375 3.5q0 2.578125 0.921875 3.6875q0.921875 1.09375 2.40625 1.09375q1.109375 0 1.890625 -0.6875q0.78125 -0.703125 1.125 -2.203125zm5.2542114 -2.25l0 -2.609375l2.609375 0l0 2.609375l-2.609375 0zm0 7.25l0 -2.609375l2.609375 0l0 2.609375l-2.609375 0zm13.974121 0l0 -11.296875l-4.03125 0l0 -2.296875l10.8125 0l0 2.296875l-4.03125 0l0 11.296875l-2.75 0zm10.81781 0l-2.609375 0l0 -9.859375l2.421875 0l0 1.40625q0.625 -0.984375 1.109375 -1.296875q0.5 -0.328125 1.140625 -0.328125q0.890625 0 1.71875 0.5l-0.8125 2.265625q-0.65625 -0.421875 -1.21875 -0.421875q-0.546875 0 -0.9375 0.296875q-0.375 0.296875 -0.59375 1.09375q-0.21875 0.78125 -0.21875 3.296875l0 3.046875zm11.24469 0l0 -1.46875q-0.53125 0.78125 -1.40625 1.234375q-0.875 0.453125 -1.859375 0.453125q-0.984375 0 -1.78125 -0.4375q-0.78125 -0.4375 -1.140625 -1.21875q-0.34375 -0.796875 -0.34375 -2.1875l0 -6.234375l2.609375 0l0 4.53125q0 2.078125 0.140625 2.546875q0.140625 0.46875 0.515625 0.75q0.390625 0.265625 0.96875 0.265625q0.671875 0 1.203125 -0.359375q0.53125 -0.375 0.71875 -0.90625q0.1875 -0.546875 0.1875 -2.671875l0 -4.15625l2.609375 0l0 9.859375l-2.421875 0zm10.614685 -3.140625l2.609375 0.4375q-0.5 1.4375 -1.59375 2.1875q-1.078125 0.734375 -2.703125 0.734375q-2.5625 0 -3.796875 -1.671875q-0.96875 -1.34375 -0.96875 -3.40625q0 -2.4375 1.265625 -3.828125q1.28125 -1.390625 3.25 -1.390625q2.1875 0 3.453125 1.453125q1.28125 1.453125 1.234375 4.453125l-6.53125 0q0.015625 1.15625 0.625 1.8125q0.609375 0.640625 1.5 0.640625q0.609375 0 1.03125 -0.328125q0.421875 -0.34375 0.625 -1.09375zm0.15625 -2.625q-0.03125 -1.140625 -0.59375 -1.71875q-0.546875 -0.59375 -1.34375 -0.59375q-0.859375 0 -1.40625 0.625q-0.5625 0.609375 -0.546875 1.6875l3.890625 0zm8.125732 -7.828125l0 17.421875l-4.609375 0l0 -2.046875l2.140625 0l0 -13.34375l-2.140625 0l0 -2.03125l4.609375 0zm6.427246 13.59375l4.640625 -7.09375l-4.203125 -6.5l3.203125 0l2.734375 4.359375l2.671875 -4.359375l3.1875 0l-4.234375 6.59375l4.640625 7.0l-3.3125 0l-3.015625 -4.703125l-3.015625 4.703125l-3.296875 0zm13.2247925 -7.578125l0 -2.390625l9.515625 0l0 2.390625l-9.515625 0zm0 4.125l0 -2.40625l9.515625 0l0 2.40625l-9.515625 0zm11.4730835 -7.734375l0 -2.40625l2.609375 0l0 2.40625l-2.609375 0zm0 11.1875l0 -9.859375l2.609375 0l0 9.859375l-2.609375 0zm11.30835 0l-2.609375 0l0 -9.828125q-1.4375 1.34375 -3.375 1.984375l0 -2.375q1.03125 -0.328125 2.21875 -1.25q1.203125 -0.9375 1.640625 -2.1875l2.125 0l0 13.65625zm4.6881714 -7.25l0 -2.609375l2.59375 0l0 2.609375l-2.59375 0zm0 4.640625l2.59375 0l0 1.859375q0 1.140625 -0.1875 1.796875q-0.1875 0.65625 -0.734375 1.171875q-0.546875 0.515625 -1.375 0.8125l-0.515625 -1.078125q0.78125 -0.25 1.109375 -0.71875q0.34375 -0.46875 0.359375 -1.234375l-1.25 0l0 -2.609375zm14.552246 2.609375l0 -5.71875l-4.984375 -7.875l3.21875 0l3.203125 5.375l3.140625 -5.375l3.15625 0l-5.0 7.890625l0 5.703125l-2.734375 0zm8.2717285 -7.578125l0 -2.390625l9.515625 0l0 2.390625l-9.515625 0zm0 4.125l0 -2.40625l9.515625 0l0 2.40625l-9.515625 0zm11.4730835 -7.734375l0 -2.40625l2.609375 0l0 2.40625l-2.609375 0zm0 11.1875l0 -9.859375l2.609375 0l0 9.859375l-2.609375 0zm13.433289 -2.421875l0 2.421875l-9.140625 0q0.15625 -1.375 0.890625 -2.59375q0.75 -1.234375 2.9375 -3.265625q1.765625 -1.640625 2.15625 -2.234375q0.546875 -0.796875 0.546875 -1.59375q0 -0.875 -0.46875 -1.34375q-0.46875 -0.46875 -1.296875 -0.46875q-0.8125 0 -1.296875 0.5q-0.484375 0.484375 -0.5625 1.625l-2.59375 -0.25q0.234375 -2.15625 1.453125 -3.09375q1.21875 -0.9375 3.0625 -0.9375q2.015625 0 3.15625 1.09375q1.15625 1.078125 1.15625 2.6875q0 0.921875 -0.328125 1.75q-0.328125 0.828125 -1.046875 1.734375q-0.46875 0.609375 -1.703125 1.75q-1.234375 1.125 -1.5625 1.5q-0.328125 0.359375 -0.53125 0.71875l5.171875 0zm2.5632324 -4.828125l0 -2.609375l2.59375 0l0 2.609375l-2.59375 0zm0 4.640625l2.59375 0l0 1.859375q0 1.140625 -0.1875 1.796875q-0.1875 0.65625 -0.734375 1.171875q-0.546875 0.515625 -1.375 0.8125l-0.515625 -1.078125q0.78125 -0.25 1.109375 -0.71875q0.34375 -0.46875 0.359375 -1.234375l-1.25 0l0 -2.609375z" fill-rule="nonzero"></path><path fill="#000000" fill-opacity="0.0" d="m612.6483 302.14697l258.48816 0l0 53.322845l-258.48816 0z" fill-rule="nonzero"></path><path stroke="#ffffff" stroke-width="1.0" stroke-linejoin="round" stroke-linecap="butt" d="m612.6483 302.14697l258.48816 0l0 53.322845l-258.48816 0z" fill-rule="nonzero"></path><path fill="#ffffff" d="m640.59686 339.55652l0 -17.421875l4.609375 0l0 2.046875l-2.140625 0l0 13.328125l2.140625 0l0 2.046875l-4.609375 0zm6.2282715 -3.828125l0 -13.59375l4.421875 0q2.5 0 3.265625 0.203125q1.15625 0.296875 1.9375 1.328125q0.796875 1.015625 0.796875 2.640625q0 1.25 -0.453125 2.109375q-0.453125 0.859375 -1.15625 1.34375q-0.703125 0.484375 -1.421875 0.640625q-0.984375 0.203125 -2.84375 0.203125l-1.796875 0l0 5.125l-2.75 0zm2.75 -11.296875l0 3.859375l1.5 0q1.625 0 2.171875 -0.21875q0.546875 -0.21875 0.859375 -0.671875q0.3125 -0.453125 0.3125 -1.046875q0 -0.75 -0.4375 -1.234375q-0.4375 -0.484375 -1.09375 -0.59375q-0.5 -0.09375 -1.984375 -0.09375l-1.328125 0zm18.396729 6.296875l2.671875 0.84375q-0.609375 2.21875 -2.046875 3.3125q-1.421875 1.078125 -3.609375 1.078125q-2.703125 0 -4.453125 -1.84375q-1.734375 -1.859375 -1.734375 -5.078125q0 -3.390625 1.75 -5.265625q1.75 -1.875 4.609375 -1.875q2.5 0 4.046875 1.46875q0.9375 0.875 1.390625 2.5l-2.71875 0.65625q-0.234375 -1.0625 -1.0 -1.671875q-0.765625 -0.609375 -1.859375 -0.609375q-1.515625 0 -2.453125 1.09375q-0.9375 1.078125 -0.9375 3.5q0 2.578125 0.921875 3.6875q0.921875 1.09375 2.40625 1.09375q1.109375 0 1.890625 -0.6875q0.78125 -0.703125 1.125 -2.203125zm5.2541504 -2.25l0 -2.609375l2.609375 0l0 2.609375l-2.609375 0zm0 7.25l0 -2.609375l2.609375 0l0 2.609375l-2.609375 0zm9.536621 0l4.640625 -7.09375l-4.203125 -6.5l3.203125 0l2.734375 4.359375l2.671875 -4.359375l3.1875 0l-4.234375 6.59375l4.640625 7.0l-3.3125 0l-3.015625 -4.703125l-3.015625 4.703125l-3.296875 0zm27.830017 -1.546875l-9.328125 -4.0625l0 -2.234375l9.328125 -4.046875l0 2.65625l-6.5 2.484375l6.5 2.578125l0 2.625zm1.4730835 -6.03125l0 -2.390625l9.515625 0l0 2.390625l-9.515625 0zm0 4.125l0 -2.40625l9.515625 0l0 2.40625l-9.515625 0zm18.343872 -3.890625q-1.015625 -0.421875 -1.484375 -1.171875q-0.453125 -0.75 -0.453125 -1.640625q0 -1.515625 1.0625 -2.5q1.0625 -1.0 3.03125 -1.0q1.9375 0 3.0 1.0q1.078125 0.984375 1.078125 2.5q0 0.953125 -0.5 1.6875q-0.484375 0.734375 -1.375 1.125q1.125 0.453125 1.71875 1.328125q0.59375 0.875 0.59375 2.015625q0 1.890625 -1.203125 3.0625q-1.203125 1.171875 -3.203125 1.171875q-1.859375 0 -3.078125 -0.96875q-1.46875 -1.15625 -1.46875 -3.15625q0 -1.09375 0.546875 -2.015625q0.546875 -0.9375 1.734375 -1.4375zm0.53125 -2.625q0 0.78125 0.4375 1.21875q0.453125 0.4375 1.1875 0.4375q0.734375 0 1.171875 -0.4375q0.453125 -0.4375 0.453125 -1.21875q0 -0.734375 -0.4375 -1.171875q-0.4375 -0.453125 -1.171875 -0.453125q-0.75 0 -1.203125 0.453125q-0.4375 0.4375 -0.4375 1.171875zm-0.234375 5.828125q0 1.078125 0.546875 1.6875q0.546875 0.59375 1.375 0.59375q0.8125 0 1.34375 -0.578125q0.53125 -0.578125 0.53125 -1.671875q0 -0.953125 -0.546875 -1.53125q-0.53125 -0.578125 -1.359375 -0.578125q-0.953125 0 -1.421875 0.65625q-0.46875 0.65625 -0.46875 1.421875zm12.250732 -9.515625q1.96875 0 3.078125 1.40625q1.328125 1.671875 1.328125 5.546875q0 3.859375 -1.328125 5.546875q-1.109375 1.390625 -3.078125 1.390625q-1.984375 0 -3.203125 -1.53125q-1.21875 -1.53125 -1.21875 -5.4375q0 -3.84375 1.34375 -5.53125q1.09375 -1.390625 3.078125 -1.390625zm0 2.15625q-0.484375 0 -0.859375 0.3125q-0.359375 0.296875 -0.5625 1.078125q-0.265625 1.015625 -0.265625 3.40625q0 2.390625 0.234375 3.28125q0.25 0.890625 0.609375 1.1875q0.359375 0.296875 0.84375 0.296875q0.46875 0 0.828125 -0.296875q0.375 -0.296875 0.59375 -1.078125q0.265625 -1.0 0.265625 -3.390625q0 -2.390625 -0.25 -3.28125q-0.234375 -0.90625 -0.609375 -1.203125q-0.359375 -0.3125 -0.828125 -0.3125zm10.125732 -2.09375l0 17.421875l-4.609375 0l0 -2.046875l2.140625 0l0 -13.34375l-2.140625 0l0 -2.03125l4.609375 0zm6.427185 13.59375l4.640625 -7.09375l-4.203125 -6.5l3.203125 0l2.734375 4.359375l2.671875 -4.359375l3.1875 0l-4.234375 6.59375l4.640625 7.0l-3.3125 0l-3.015625 -4.703125l-3.015625 4.703125l-3.296875 0zm13.2248535 -7.578125l0 -2.390625l9.515625 0l0 2.390625l-9.515625 0zm0 4.125l0 -2.40625l9.515625 0l0 2.40625l-9.515625 0zm15.3324585 -10.203125q1.96875 0 3.078125 1.40625q1.328125 1.671875 1.328125 5.546875q0 3.859375 -1.328125 5.546875q-1.109375 1.390625 -3.078125 1.390625q-1.984375 0 -3.203125 -1.53125q-1.21875 -1.53125 -1.21875 -5.4375q0 -3.84375 1.34375 -5.53125q1.09375 -1.390625 3.078125 -1.390625zm0 2.15625q-0.484375 0 -0.859375 0.3125q-0.359375 0.296875 -0.5625 1.078125q-0.265625 1.015625 -0.265625 3.40625q0 2.390625 0.234375 3.28125q0.25 0.890625 0.609375 1.1875q0.359375 0.296875 0.84375 0.296875q0.46875 0 0.828125 -0.296875q0.375 -0.296875 0.59375 -1.078125q0.265625 -1.0 0.265625 -3.390625q0 -2.390625 -0.25 -3.28125q-0.234375 -0.90625 -0.609375 -1.203125q-0.359375 -0.3125 -0.828125 -0.3125zm6.9538574 4.25l0 -2.609375l2.59375 0l0 2.609375l-2.59375 0zm0 4.640625l2.59375 0l0 1.859375q0 1.140625 -0.1875 1.796875q-0.1875 0.65625 -0.734375 1.171875q-0.546875 0.515625 -1.375 0.8125l-0.515625 -1.078125q0.78125 -0.25 1.109375 -0.71875q0.34375 -0.46875 0.359375 -1.234375l-1.25 0l0 -2.609375zm14.552185 2.609375l0 -5.71875l-4.984375 -7.875l3.21875 0l3.203125 5.375l3.140625 -5.375l3.15625 0l-5.0 7.890625l0 5.703125l-2.734375 0zm8.2717285 -7.578125l0 -2.390625l9.515625 0l0 2.390625l-9.515625 0zm0 4.125l0 -2.40625l9.515625 0l0 2.40625l-9.515625 0zm15.3324585 -10.203125q1.96875 0 3.078125 1.40625q1.328125 1.671875 1.328125 5.546875q0 3.859375 -1.328125 5.546875q-1.109375 1.390625 -3.078125 1.390625q-1.984375 0 -3.203125 -1.53125q-1.21875 -1.53125 -1.21875 -5.4375q0 -3.84375 1.34375 -5.53125q1.09375 -1.390625 3.078125 -1.390625zm0 2.15625q-0.484375 0 -0.859375 0.3125q-0.359375 0.296875 -0.5625 1.078125q-0.265625 1.015625 -0.265625 3.40625q0 2.390625 0.234375 3.28125q0.25 0.890625 0.609375 1.1875q0.359375 0.296875 0.84375 0.296875q0.46875 0 0.828125 -0.296875q0.375 -0.296875 0.59375 -1.078125q0.265625 -1.0 0.265625 -3.390625q0 -2.390625 -0.25 -3.28125q-0.234375 -0.90625 -0.609375 -1.203125q-0.359375 -0.3125 -0.828125 -0.3125zm6.9538574 4.25l0 -2.609375l2.59375 0l0 2.609375l-2.59375 0zm0 4.640625l2.59375 0l0 1.859375q0 1.140625 -0.1875 1.796875q-0.1875 0.65625 -0.734375 1.171875q-0.546875 0.515625 -1.375 0.8125l-0.515625 -1.078125q0.78125 -0.25 1.109375 -0.71875q0.34375 -0.46875 0.359375 -1.234375l-1.25 0l0 -2.609375z" fill-rule="nonzero"></path><path fill="#000000" fill-opacity="0.0" d="m612.66406 66.055115l0 42.79254l0.06298828 0l0 42.782272" fill-rule="nonzero"></path><path stroke="#ffffff" stroke-width="4.0" stroke-linejoin="round" stroke-linecap="butt" d="m612.66406 66.055115l0 42.79254l0.06298828 0l0 18.782265" fill-rule="evenodd"></path><path fill="#ffffff" stroke="#ffffff" stroke-width="4.0" stroke-linecap="butt" d="m606.1201 127.62992l6.6069336 18.152397l6.6069336 -18.152397z" fill-rule="evenodd"></path><path fill="#000000" fill-opacity="0.0" d="m483.4042 151.64043l258.4882 0l0 53.32283l-258.4882 0z" fill-rule="nonzero"></path><path stroke="#ffffff" stroke-width="1.0" stroke-linejoin="round" stroke-linecap="butt" d="m483.4042 151.64043l258.4882 0l0 53.32283l-258.4882 0z" fill-rule="nonzero"></path><path fill="#ffffff" d="m530.8152 189.04996l0 -17.421875l4.609375 0l0 2.046875l-2.140625 0l0 13.328125l2.140625 0l0 2.046875l-4.609375 0zm6.2283325 -3.828125l0 -13.59375l4.421875 0q2.5 0 3.265625 0.203125q1.15625 0.296875 1.9375 1.328125q0.796875 1.015625 0.796875 2.640625q0 1.25 -0.453125 2.109375q-0.453125 0.859375 -1.15625 1.34375q-0.703125 0.484375 -1.421875 0.640625q-0.984375 0.203125 -2.84375 0.203125l-1.796875 0l0 5.125l-2.75 0zm2.75 -11.296875l0 3.859375l1.5 0q1.625 0 2.171875 -0.21875q0.546875 -0.21875 0.859375 -0.671875q0.3125 -0.453125 0.3125 -1.046875q0 -0.75 -0.4375 -1.234375q-0.4375 -0.484375 -1.09375 -0.59375q-0.5 -0.09375 -1.984375 -0.09375l-1.328125 0zm18.396667 6.296875l2.671875 0.84375q-0.609375 2.21875 -2.046875 3.3125q-1.421875 1.078125 -3.609375 1.078125q-2.703125 0 -4.453125 -1.84375q-1.734375 -1.859375 -1.734375 -5.078125q0 -3.390625 1.75 -5.265625q1.75 -1.875 4.609375 -1.875q2.5 0 4.046875 1.46875q0.9375 0.875 1.390625 2.5l-2.71875 0.65625q-0.234375 -1.0625 -1.0 -1.671875q-0.765625 -0.609375 -1.859375 -0.609375q-1.515625 0 -2.453125 1.09375q-0.9375 1.078125 -0.9375 3.5q0 2.578125 0.921875 3.6875q0.921875 1.09375 2.40625 1.09375q1.109375 0 1.890625 -0.6875q0.78125 -0.703125 1.125 -2.203125zm5.2542114 -2.25l0 -2.609375l2.609375 0l0 2.609375l-2.609375 0zm0 7.25l0 -2.609375l2.609375 0l0 2.609375l-2.609375 0zm13.974121 0l0 -11.296875l-4.03125 0l0 -2.296875l10.8125 0l0 2.296875l-4.03125 0l0 11.296875l-2.75 0zm10.81781 0l-2.609375 0l0 -9.859375l2.421875 0l0 1.40625q0.625 -0.984375 1.109375 -1.296875q0.5 -0.328125 1.140625 -0.328125q0.890625 0 1.71875 0.5l-0.8125 2.265625q-0.65625 -0.421875 -1.21875 -0.421875q-0.546875 0 -0.9375 0.296875q-0.375 0.296875 -0.59375 1.09375q-0.21875 0.78125 -0.21875 3.296875l0 3.046875zm11.24469 0l0 -1.46875q-0.53125 0.78125 -1.40625 1.234375q-0.875 0.453125 -1.859375 0.453125q-0.984375 0 -1.78125 -0.4375q-0.78125 -0.4375 -1.140625 -1.21875q-0.34375 -0.796875 -0.34375 -2.1875l0 -6.234375l2.609375 0l0 4.53125q0 2.078125 0.140625 2.546875q0.140625 0.46875 0.515625 0.75q0.390625 0.265625 0.96875 0.265625q0.671875 0 1.203125 -0.359375q0.53125 -0.375 0.71875 -0.90625q0.1875 -0.546875 0.1875 -2.671875l0 -4.15625l2.609375 0l0 9.859375l-2.421875 0zm10.614685 -3.140625l2.609375 0.4375q-0.5 1.4375 -1.59375 2.1875q-1.078125 0.734375 -2.703125 0.734375q-2.5625 0 -3.796875 -1.671875q-0.96875 -1.34375 -0.96875 -3.40625q0 -2.4375 1.265625 -3.828125q1.28125 -1.390625 3.25 -1.390625q2.1875 0 3.453125 1.453125q1.28125 1.453125 1.234375 4.453125l-6.53125 0q0.015625 1.15625 0.625 1.8125q0.609375 0.640625 1.5 0.640625q0.609375 0 1.03125 -0.328125q0.421875 -0.34375 0.625 -1.09375zm0.15625 -2.625q-0.03125 -1.140625 -0.59375 -1.71875q-0.546875 -0.59375 -1.34375 -0.59375q-0.859375 0 -1.40625 0.625q-0.5625 0.609375 -0.546875 1.6875l3.890625 0zm8.125732 -7.828125l0 17.421875l-4.609375 0l0 -2.046875l2.140625 0l0 -13.34375l-2.140625 0l0 -2.03125l4.609375 0zm6.427246 13.59375l4.640625 -7.09375l-4.203125 -6.5l3.203125 0l2.734375 4.359375l2.671875 -4.359375l3.1875 0l-4.234375 6.59375l4.640625 7.0l-3.3125 0l-3.015625 -4.703125l-3.015625 4.703125l-3.296875 0zm18.501831 -1.546875l0 -2.625l6.515625 -2.546875l-6.515625 -2.546875l0 -2.59375l9.34375 4.03125l0 2.21875l-9.34375 4.0625zm18.250183 -5.796875q-1.015625 -0.421875 -1.484375 -1.171875q-0.453125 -0.75 -0.453125 -1.640625q0 -1.515625 1.0625 -2.5q1.0625 -1.0 3.03125 -1.0q1.9375 0 3.0 1.0q1.078125 0.984375 1.078125 2.5q0 0.953125 -0.5 1.6875q-0.484375 0.734375 -1.375 1.125q1.125 0.453125 1.71875 1.328125q0.59375 0.875 0.59375 2.015625q0 1.890625 -1.203125 3.0625q-1.203125 1.171875 -3.203125 1.171875q-1.859375 0 -3.078125 -0.96875q-1.46875 -1.15625 -1.46875 -3.15625q0 -1.09375 0.546875 -2.015625q0.546875 -0.9375 1.734375 -1.4375zm0.53125 -2.625q0 0.78125 0.4375 1.21875q0.453125 0.4375 1.1875 0.4375q0.734375 0 1.171875 -0.4375q0.453125 -0.4375 0.453125 -1.21875q0 -0.734375 -0.4375 -1.171875q-0.4375 -0.453125 -1.171875 -0.453125q-0.75 0 -1.203125 0.453125q-0.4375 0.4375 -0.4375 1.171875zm-0.234375 5.828125q0 1.078125 0.546875 1.6875q0.546875 0.59375 1.375 0.59375q0.8125 0 1.34375 -0.578125q0.53125 -0.578125 0.53125 -1.671875q0 -0.953125 -0.546875 -1.53125q-0.53125 -0.578125 -1.359375 -0.578125q-0.953125 0 -1.421875 0.65625q-0.46875 0.65625 -0.46875 1.421875zm12.250671 -9.515625q1.96875 0 3.078125 1.40625q1.328125 1.671875 1.328125 5.546875q0 3.859375 -1.328125 5.546875q-1.109375 1.390625 -3.078125 1.390625q-1.984375 0 -3.203125 -1.53125q-1.21875 -1.53125 -1.21875 -5.4375q0 -3.84375 1.34375 -5.53125q1.09375 -1.390625 3.078125 -1.390625zm0 2.15625q-0.484375 0 -0.859375 0.3125q-0.359375 0.296875 -0.5625 1.078125q-0.265625 1.015625 -0.265625 3.40625q0 2.390625 0.234375 3.28125q0.25 0.890625 0.609375 1.1875q0.359375 0.296875 0.84375 0.296875q0.46875 0 0.828125 -0.296875q0.375 -0.296875 0.59375 -1.078125q0.265625 -1.0 0.265625 -3.390625q0 -2.390625 -0.25 -3.28125q-0.234375 -0.90625 -0.609375 -1.203125q-0.359375 -0.3125 -0.828125 -0.3125zm17.309021 8.0l-2.359375 0q-0.015625 -0.515625 -0.015625 -0.625q0 -1.15625 0.375 -1.890625q0.390625 -0.75 1.53125 -1.671875q1.140625 -0.9375 1.359375 -1.21875q0.34375 -0.453125 0.34375 -1.0q0 -0.765625 -0.609375 -1.296875q-0.609375 -0.546875 -1.640625 -0.546875q-0.984375 0 -1.65625 0.5625q-0.671875 0.5625 -0.921875 1.71875l-2.390625 -0.296875q0.09375 -1.65625 1.40625 -2.8125q1.328125 -1.15625 3.453125 -1.15625q2.25 0 3.578125 1.171875q1.328125 1.171875 1.328125 2.734375q0 0.859375 -0.5 1.625q-0.484375 0.765625 -2.078125 2.09375q-0.828125 0.6875 -1.03125 1.109375q-0.1875 0.421875 -0.171875 1.5zm-2.359375 3.5l0 -2.609375l2.59375 0l0 2.609375l-2.59375 0z" fill-rule="nonzero"></path><path fill="#000000" fill-opacity="0.0" d="m612.6483 204.96326l0 48.591614l129.25983 0l0 48.605225" fill-rule="nonzero"></path><path stroke="#ffffff" stroke-width="4.0" stroke-linejoin="round" stroke-linecap="butt" d="m612.6483 204.96326l0 48.591614l129.25983 0l0 24.605225" fill-rule="evenodd"></path><path fill="#ffffff" stroke="#ffffff" stroke-width="4.0" stroke-linecap="butt" d="m735.3012 278.1601l6.6069336 18.152405l6.6069336 -18.152405z" fill-rule="evenodd"></path><path fill="#000000" fill-opacity="0.0" d="m224.91602 302.14697l258.4882 0l0 53.322845l-258.4882 0z" fill-rule="nonzero"></path><path stroke="#ffffff" stroke-width="1.0" stroke-linejoin="round" stroke-linecap="butt" d="m224.91602 302.14697l258.4882 0l0 53.322845l-258.4882 0z" fill-rule="nonzero"></path><path fill="#ffffff" d="m254.67735 339.55652l0 -17.421875l4.6093597 0l0 2.046875l-2.140625 0l0 13.328125l2.140625 0l0 2.046875l-4.6093597 0zm6.2282867 -3.828125l0 -13.59375l4.421875 0q2.5 0 3.265625 0.203125q1.15625 0.296875 1.9375 1.328125q0.796875 1.015625 0.796875 2.640625q0 1.25 -0.453125 2.109375q-0.453125 0.859375 -1.15625 1.34375q-0.703125 0.484375 -1.421875 0.640625q-0.984375 0.203125 -2.84375 0.203125l-1.796875 0l0 5.125l-2.75 0zm2.75 -11.296875l0 3.859375l1.5 0q1.625 0 2.171875 -0.21875q0.546875 -0.21875 0.859375 -0.671875q0.3125 -0.453125 0.3125 -1.046875q0 -0.75 -0.4375 -1.234375q-0.4375 -0.484375 -1.09375 -0.59375q-0.5 -0.09375 -1.984375 -0.09375l-1.328125 0zm18.396698 6.296875l2.671875 0.84375q-0.609375 2.21875 -2.046875 3.3125q-1.421875 1.078125 -3.609375 1.078125q-2.703125 0 -4.453125 -1.84375q-1.734375 -1.859375 -1.734375 -5.078125q0 -3.390625 1.75 -5.265625q1.75 -1.875 4.609375 -1.875q2.5 0 4.046875 1.46875q0.9375 0.875 1.390625 2.5l-2.71875 0.65625q-0.234375 -1.0625 -1.0 -1.671875q-0.765625 -0.609375 -1.859375 -0.609375q-1.515625 0 -2.453125 1.09375q-0.9375 1.078125 -0.9375 3.5q0 2.578125 0.921875 3.6875q0.921875 1.09375 2.40625 1.09375q1.109375 0 1.890625 -0.6875q0.78125 -0.703125 1.125 -2.203125zm5.2542114 -2.25l0 -2.609375l2.609375 0l0 2.609375l-2.609375 0zm0 7.25l0 -2.609375l2.609375 0l0 2.609375l-2.609375 0zm9.536591 0l4.640625 -7.09375l-4.203125 -6.5l3.203125 0l2.734375 4.359375l2.671875 -4.359375l3.1875 0l-4.234375 6.59375l4.640625 7.0l-3.3125 0l-3.015625 -4.703125l-3.015625 4.703125l-3.296875 0zm18.501892 -1.546875l0 -2.625l6.515625 -2.546875l-6.515625 -2.546875l0 -2.59375l9.34375 4.03125l0 2.21875l-9.34375 4.0625zm18.250122 -5.796875q-1.015625 -0.421875 -1.484375 -1.171875q-0.453125 -0.75 -0.453125 -1.640625q0 -1.515625 1.0625 -2.5q1.0625 -1.0 3.03125 -1.0q1.9375 0 3.0 1.0q1.078125 0.984375 1.078125 2.5q0 0.953125 -0.5 1.6875q-0.484375 0.734375 -1.375 1.125q1.125 0.453125 1.71875 1.328125q0.59375 0.875 0.59375 2.015625q0 1.890625 -1.203125 3.0625q-1.203125 1.171875 -3.203125 1.171875q-1.859375 0 -3.078125 -0.96875q-1.46875 -1.15625 -1.46875 -3.15625q0 -1.09375 0.546875 -2.015625q0.546875 -0.9375 1.734375 -1.4375zm0.53125 -2.625q0 0.78125 0.4375 1.21875q0.453125 0.4375 1.1875 0.4375q0.734375 0 1.171875 -0.4375q0.453125 -0.4375 0.453125 -1.21875q0 -0.734375 -0.4375 -1.171875q-0.4375 -0.453125 -1.171875 -0.453125q-0.75 0 -1.203125 0.453125q-0.4375 0.4375 -0.4375 1.171875zm-0.234375 5.828125q0 1.078125 0.546875 1.6875q0.546875 0.59375 1.375 0.59375q0.8125 0 1.34375 -0.578125q0.53125 -0.578125 0.53125 -1.671875q0 -0.953125 -0.546875 -1.53125q-0.53125 -0.578125 -1.359375 -0.578125q-0.953125 0 -1.421875 0.65625q-0.46875 0.65625 -0.46875 1.421875zm12.250732 -9.515625q1.96875 0 3.078125 1.40625q1.328125 1.671875 1.328125 5.546875q0 3.859375 -1.328125 5.546875q-1.109375 1.390625 -3.078125 1.390625q-1.984375 0 -3.203125 -1.53125q-1.21875 -1.53125 -1.21875 -5.4375q0 -3.84375 1.34375 -5.53125q1.09375 -1.390625 3.078125 -1.390625zm0 2.15625q-0.484375 0 -0.859375 0.3125q-0.359375 0.296875 -0.5625 1.078125q-0.265625 1.015625 -0.265625 3.40625q0 2.390625 0.234375 3.28125q0.25 0.890625 0.609375 1.1875q0.359375 0.296875 0.84375 0.296875q0.46875 0 0.828125 -0.296875q0.375 -0.296875 0.59375 -1.078125q0.265625 -1.0 0.265625 -3.390625q0 -2.390625 -0.25 -3.28125q-0.234375 -0.90625 -0.609375 -1.203125q-0.359375 -0.3125 -0.828125 -0.3125zm10.125702 -2.09375l0 17.421875l-4.609375 0l0 -2.046875l2.140625 0l0 -13.34375l-2.140625 0l0 -2.03125l4.609375 0zm6.427246 13.59375l4.640625 -7.09375l-4.203125 -6.5l3.203125 0l2.734375 4.359375l2.671875 -4.359375l3.1875 0l-4.234375 6.59375l4.640625 7.0l-3.3125 0l-3.015625 -4.703125l-3.015625 4.703125l-3.296875 0zm18.408112 -7.578125l0 -2.390625l9.515625 0l0 2.390625l-9.515625 0zm0 4.125l0 -2.40625l9.515625 0l0 2.40625l-9.515625 0zm10.8949585 -4.125l0 -2.390625l9.515625 0l0 2.390625l-9.515625 0zm0 4.125l0 -2.40625l9.515625 0l0 2.40625l-9.515625 0zm24.906403 1.03125l0 2.421875l-9.140625 0q0.15625 -1.375 0.890625 -2.59375q0.75 -1.234375 2.9375 -3.265625q1.765625 -1.640625 2.15625 -2.234375q0.546875 -0.796875 0.546875 -1.59375q0 -0.875 -0.46875 -1.34375q-0.46875 -0.46875 -1.296875 -0.46875q-0.8125 0 -1.296875 0.5q-0.484375 0.484375 -0.5625 1.625l-2.59375 -0.25q0.234375 -2.15625 1.453125 -3.09375q1.21875 -0.9375 3.0625 -0.9375q2.015625 0 3.15625 1.09375q1.15625 1.078125 1.15625 2.6875q0 0.921875 -0.328125 1.75q-0.328125 0.828125 -1.046875 1.734375q-0.46875 0.609375 -1.703125 1.75q-1.234375 1.125 -1.5625 1.5q-0.328125 0.359375 -0.53125 0.71875l5.171875 0zm1.6100769 -1.078125l2.59375 -0.265625q0.109375 0.875 0.65625 1.390625q0.546875 0.515625 1.265625 0.515625q0.8125 0 1.375 -0.65625q0.578125 -0.671875 0.578125 -2.0q0 -1.25 -0.5625 -1.875q-0.5625 -0.625 -1.46875 -0.625q-1.109375 0 -2.0 0.984375l-2.125 -0.3125l1.34375 -7.078125l6.890625 0l0 2.453125l-4.921875 0l-0.40625 2.296875q0.875 -0.421875 1.78125 -0.421875q1.734375 0 2.9375 1.265625q1.203125 1.25 1.203125 3.265625q0 1.671875 -0.96875 3.0q-1.328125 1.796875 -3.6875 1.796875q-1.875 0 -3.0625 -1.015625q-1.1875 -1.015625 -1.421875 -2.71875zm19.172607 -6.765625l-2.53125 0.28125q-0.09375 -0.78125 -0.484375 -1.15625q-0.375 -0.375 -1.0 -0.375q-0.828125 0 -1.40625 0.75q-0.5625 0.734375 -0.71875 3.078125q0.984375 -1.140625 2.421875 -1.140625q1.640625 0 2.796875 1.25q1.171875 1.234375 1.171875 3.203125q0 2.078125 -1.234375 3.34375q-1.21875 1.265625 -3.140625 1.265625q-2.0625 0 -3.390625 -1.59375q-1.3125 -1.609375 -1.3125 -5.25q0 -3.75 1.375 -5.390625q1.390625 -1.65625 3.59375 -1.65625q1.546875 0 2.5625 0.875q1.015625 0.859375 1.296875 2.515625zm-5.90625 5.6875q0 1.265625 0.578125 1.953125q0.59375 0.6875 1.34375 0.6875q0.71875 0 1.203125 -0.5625q0.484375 -0.5625 0.484375 -1.84375q0 -1.328125 -0.53125 -1.9375q-0.515625 -0.625 -1.296875 -0.625q-0.75 0 -1.265625 0.59375q-0.515625 0.578125 -0.515625 1.734375zm18.793396 1.078125l-2.359375 0q-0.015625 -0.515625 -0.015625 -0.625q0 -1.15625 0.375 -1.890625q0.390625 -0.75 1.53125 -1.671875q1.140625 -0.9375 1.359375 -1.21875q0.34375 -0.453125 0.34375 -1.0q0 -0.765625 -0.609375 -1.296875q-0.609375 -0.546875 -1.640625 -0.546875q-0.984375 0 -1.65625 0.5625q-0.671875 0.5625 -0.921875 1.71875l-2.390625 -0.296875q0.09375 -1.65625 1.40625 -2.8125q1.328125 -1.15625 3.453125 -1.15625q2.25 0 3.578125 1.171875q1.328125 1.171875 1.328125 2.734375q0 0.859375 -0.5 1.625q-0.484375 0.765625 -2.078125 2.09375q-0.828125 0.6875 -1.03125 1.109375q-0.1875 0.421875 -0.171875 1.5zm-2.359375 3.5l0 -2.609375l2.59375 0l0 2.609375l-2.59375 0z" fill-rule="nonzero"></path><path fill="#000000" fill-opacity="0.0" d="m369.0656 522.90027l258.48822 0l0 53.322815l-258.48822 0z" fill-rule="nonzero"></path><path stroke="#ffffff" stroke-width="1.0" stroke-linejoin="round" stroke-linecap="butt" d="m369.0656 522.90027l258.48822 0l0 53.322815l-258.48822 0z" fill-rule="nonzero"></path><path fill="#ffffff" d="m393.39313 560.3098l0 -17.421875l4.609375 0l0 2.046875l-2.140625 0l0 13.328125l2.140625 0l0 2.046875l-4.609375 0zm6.228302 -3.828125l0 -13.59375l4.421875 0q2.5 0 3.265625 0.203125q1.15625 0.296875 1.9375 1.328125q0.796875 1.015625 0.796875 2.640625q0 1.25 -0.453125 2.109375q-0.453125 0.859375 -1.15625 1.34375q-0.703125 0.484375 -1.421875 0.640625q-0.984375 0.203125 -2.84375 0.203125l-1.796875 0l0 5.125l-2.75 0zm2.75 -11.296875l0 3.859375l1.5 0q1.625 0 2.171875 -0.21875q0.546875 -0.21875 0.859375 -0.671875q0.3125 -0.453125 0.3125 -1.046875q0 -0.75 -0.4375 -1.234375q-0.4375 -0.484375 -1.09375 -0.59375q-0.5 -0.09375 -1.984375 -0.09375l-1.328125 0zm18.396698 6.296875l2.671875 0.84375q-0.609375 2.21875 -2.046875 3.3125q-1.421875 1.078125 -3.609375 1.078125q-2.703125 0 -4.453125 -1.84375q-1.734375 -1.859375 -1.734375 -5.078125q0 -3.390625 1.75 -5.265625q1.75 -1.875 4.609375 -1.875q2.5 0 4.046875 1.46875q0.9375 0.875 1.390625 2.5l-2.71875 0.65625q-0.234375 -1.0625 -1.0 -1.671875q-0.765625 -0.609375 -1.859375 -0.609375q-1.515625 0 -2.453125 1.09375q-0.9375 1.078125 -0.9375 3.5q0 2.578125 0.921875 3.6875q0.921875 1.09375 2.40625 1.09375q1.109375 0 1.890625 -0.6875q0.78125 -0.703125 1.125 -2.203125zm5.2542114 -2.25l0 -2.609375l2.609375 0l0 2.609375l-2.609375 0zm0 7.25l0 -2.609375l2.609375 0l0 2.609375l-2.609375 0zm9.536591 0l4.640625 -7.09375l-4.203125 -6.5l3.203125 0l2.734375 4.359375l2.671875 -4.359375l3.1875 0l-4.234375 6.59375l4.640625 7.0l-3.3125 0l-3.015625 -4.703125l-3.015625 4.703125l-3.296875 0zm18.501892 -1.546875l0 -2.625l6.515625 -2.546875l-6.515625 -2.546875l0 -2.59375l9.34375 4.03125l0 2.21875l-9.34375 4.0625zm18.250122 -5.796875q-1.015625 -0.421875 -1.484375 -1.171875q-0.453125 -0.75 -0.453125 -1.640625q0 -1.515625 1.0625 -2.5q1.0625 -1.0 3.03125 -1.0q1.9375 0 3.0 1.0q1.078125 0.984375 1.078125 2.5q0 0.953125 -0.5 1.6875q-0.484375 0.734375 -1.375 1.125q1.125 0.453125 1.71875 1.328125q0.59375 0.875 0.59375 2.015625q0 1.890625 -1.203125 3.0625q-1.203125 1.171875 -3.203125 1.171875q-1.859375 0 -3.078125 -0.96875q-1.46875 -1.15625 -1.46875 -3.15625q0 -1.09375 0.546875 -2.015625q0.546875 -0.9375 1.734375 -1.4375zm0.53125 -2.625q0 0.78125 0.4375 1.21875q0.453125 0.4375 1.1875 0.4375q0.734375 0 1.171875 -0.4375q0.453125 -0.4375 0.453125 -1.21875q0 -0.734375 -0.4375 -1.171875q-0.4375 -0.453125 -1.171875 -0.453125q-0.75 0 -1.203125 0.453125q-0.4375 0.4375 -0.4375 1.171875zm-0.234375 5.828125q0 1.078125 0.546875 1.6875q0.546875 0.59375 1.375 0.59375q0.8125 0 1.34375 -0.578125q0.53125 -0.578125 0.53125 -1.671875q0 -0.953125 -0.546875 -1.53125q-0.53125 -0.578125 -1.359375 -0.578125q-0.953125 0 -1.421875 0.65625q-0.46875 0.65625 -0.46875 1.421875zm12.250732 -9.515625q1.96875 0 3.078125 1.40625q1.328125 1.671875 1.328125 5.546875q0 3.859375 -1.328125 5.546875q-1.109375 1.390625 -3.078125 1.390625q-1.984375 0 -3.203125 -1.53125q-1.21875 -1.53125 -1.21875 -5.4375q0 -3.84375 1.34375 -5.53125q1.09375 -1.390625 3.078125 -1.390625zm0 2.15625q-0.484375 0 -0.859375 0.3125q-0.359375 0.296875 -0.5625 1.078125q-0.265625 1.015625 -0.265625 3.40625q0 2.390625 0.234375 3.28125q0.25 0.890625 0.609375 1.1875q0.359375 0.296875 0.84375 0.296875q0.46875 0 0.828125 -0.296875q0.375 -0.296875 0.59375 -1.078125q0.265625 -1.0 0.265625 -3.390625q0 -2.390625 -0.25 -3.28125q-0.234375 -0.90625 -0.609375 -1.203125q-0.359375 -0.3125 -0.828125 -0.3125zm23.762146 9.84375l-1.578125 2.015625q-1.171875 -0.578125 -2.234375 -1.5625q-0.828125 0.734375 -1.75 1.09375q-0.921875 0.34375 -2.203125 0.34375q-2.546875 0 -3.828125 -1.421875q-1.0 -1.109375 -1.0 -2.546875q0 -1.296875 0.78125 -2.34375q0.78125 -1.046875 2.328125 -1.8125q-0.6875 -0.828125 -1.046875 -1.578125q-0.34375 -0.75 -0.34375 -1.40625q0 -1.234375 0.984375 -2.09375q0.984375 -0.859375 2.8125 -0.859375q1.765625 0 2.75 0.90625q1.0 0.890625 1.0 2.1875q0 0.828125 -0.5 1.578125q-0.484375 0.734375 -1.984375 1.671875l1.90625 2.5q0.328125 -0.59375 0.5625 -1.5625l2.359375 0.546875q-0.34375 1.25 -0.609375 1.828125q-0.265625 0.578125 -0.5625 0.96875q0.4375 0.40625 1.125 0.90625q0.703125 0.484375 1.03125 0.640625zm-7.109375 -7.40625l0.703125 -0.53125q0.78125 -0.609375 0.78125 -1.203125q0 -0.5 -0.375 -0.84375q-0.375 -0.359375 -1.015625 -0.359375q-0.609375 0 -0.96875 0.3125q-0.359375 0.3125 -0.359375 0.71875q0 0.484375 0.59375 1.171875l0.640625 0.734375zm-1.015625 2.84375q-0.90625 0.453125 -1.359375 1.09375q-0.4375 0.640625 -0.4375 1.296875q0 0.84375 0.546875 1.390625q0.5625 0.53125 1.484375 0.53125q0.625 0 1.1875 -0.234375q0.5625 -0.25 1.234375 -0.8125l-2.65625 -3.265625zm21.59793 4.5625l-1.578125 2.015625q-1.171875 -0.578125 -2.234375 -1.5625q-0.828125 0.734375 -1.75 1.09375q-0.921875 0.34375 -2.203125 0.34375q-2.546875 0 -3.828125 -1.421875q-1.0 -1.109375 -1.0 -2.546875q0 -1.296875 0.78125 -2.34375q0.78125 -1.046875 2.328125 -1.8125q-0.6875 -0.828125 -1.046875 -1.578125q-0.34375 -0.75 -0.34375 -1.40625q0 -1.234375 0.984375 -2.09375q0.984375 -0.859375 2.8125 -0.859375q1.765625 0 2.75 0.90625q1.0 0.890625 1.0 2.1875q0 0.828125 -0.5 1.578125q-0.484375 0.734375 -1.984375 1.671875l1.90625 2.5q0.328125 -0.59375 0.5625 -1.5625l2.359375 0.546875q-0.34375 1.25 -0.609375 1.828125q-0.265625 0.578125 -0.5625 0.96875q0.4375 0.40625 1.125 0.90625q0.703125 0.484375 1.03125 0.640625zm-7.109375 -7.40625l0.703125 -0.53125q0.78125 -0.609375 0.78125 -1.203125q0 -0.5 -0.375 -0.84375q-0.375 -0.359375 -1.015625 -0.359375q-0.609375 0 -0.96875 0.3125q-0.359375 0.3125 -0.359375 0.71875q0 0.484375 0.59375 1.171875l0.640625 0.734375zm-1.015625 2.84375q-0.90625 0.453125 -1.359375 1.09375q-0.4375 0.640625 -0.4375 1.296875q0 0.84375 0.546875 1.390625q0.5625 0.53125 1.484375 0.53125q0.625 0 1.1875 -0.234375q0.5625 -0.25 1.234375 -0.8125l-2.65625 -3.265625zm13.359375 6.21875l4.640625 -7.09375l-4.203125 -6.5l3.203125 0l2.734375 4.359375l2.671875 -4.359375l3.1875 0l-4.234375 6.59375l4.640625 7.0l-3.3125 0l-3.015625 -4.703125l-3.015625 4.703125l-3.296875 0zm20.017517 -3.5l-0.6875 -6.90625l0 -3.1875l2.828125 0l0 3.1875l-0.671875 6.90625l-1.46875 0zm-0.578125 3.5l0 -2.609375l2.609375 0l0 2.609375l-2.609375 0zm5.1814575 -7.578125l0 -2.390625l9.515625 0l0 2.390625l-9.515625 0zm0 4.125l0 -2.40625l9.515625 0l0 2.40625l-9.515625 0zm24.906372 1.03125l0 2.421875l-9.140625 0q0.15625 -1.375 0.890625 -2.59375q0.75 -1.234375 2.9375 -3.265625q1.765625 -1.640625 2.15625 -2.234375q0.546875 -0.796875 0.546875 -1.59375q0 -0.875 -0.46875 -1.34375q-0.46875 -0.46875 -1.296875 -0.46875q-0.8125 0 -1.296875 0.5q-0.484375 0.484375 -0.5625 1.625l-2.59375 -0.25q0.234375 -2.15625 1.453125 -3.09375q1.21875 -0.9375 3.0625 -0.9375q2.015625 0 3.15625 1.09375q1.15625 1.078125 1.15625 2.6875q0 0.921875 -0.328125 1.75q-0.328125 0.828125 -1.046875 1.734375q-0.46875 0.609375 -1.703125 1.75q-1.234375 1.125 -1.5625 1.5q-0.328125 0.359375 -0.53125 0.71875l5.171875 0zm1.6101074 -1.078125l2.59375 -0.265625q0.109375 0.875 0.65625 1.390625q0.546875 0.515625 1.265625 0.515625q0.8125 0 1.375 -0.65625q0.578125 -0.671875 0.578125 -2.0q0 -1.25 -0.5625 -1.875q-0.5625 -0.625 -1.46875 -0.625q-1.109375 0 -2.0 0.984375l-2.125 -0.3125l1.34375 -7.078125l6.890625 0l0 2.453125l-4.921875 0l-0.40625 2.296875q0.875 -0.421875 1.78125 -0.421875q1.734375 0 2.9375 1.265625q1.203125 1.25 1.203125 3.265625q0 1.671875 -0.96875 3.0q-1.328125 1.796875 -3.6875 1.796875q-1.875 0 -3.0625 -1.015625q-1.1875 -1.015625 -1.421875 -2.71875zm19.172546 -6.765625l-2.53125 0.28125q-0.09375 -0.78125 -0.484375 -1.15625q-0.375 -0.375 -1.0 -0.375q-0.828125 0 -1.40625 0.75q-0.5625 0.734375 -0.71875 3.078125q0.984375 -1.140625 2.421875 -1.140625q1.640625 0 2.796875 1.25q1.171875 1.234375 1.171875 3.203125q0 2.078125 -1.234375 3.34375q-1.21875 1.265625 -3.140625 1.265625q-2.0625 0 -3.390625 -1.59375q-1.3125 -1.609375 -1.3125 -5.25q0 -3.75 1.375 -5.390625q1.390625 -1.65625 3.59375 -1.65625q1.546875 0 2.5625 0.875q1.015625 0.859375 1.296875 2.515625zm-5.90625 5.6875q0 1.265625 0.578125 1.953125q0.59375 0.6875 1.34375 0.6875q0.71875 0 1.203125 -0.5625q0.484375 -0.5625 0.484375 -1.84375q0 -1.328125 -0.53125 -1.9375q-0.515625 -0.625 -1.296875 -0.625q-0.75 0 -1.265625 0.59375q-0.515625 0.578125 -0.515625 1.734375zm11.610107 -9.015625l0 17.421875l-4.609375 0l0 -2.046875l2.140625 0l0 -13.34375l-2.140625 0l0 -2.03125l4.609375 0z" fill-rule="nonzero"></path><path fill="#000000" fill-opacity="0.0" d="m37.280838 522.90027l258.48822 0l0 53.322815l-258.48822 0z" fill-rule="nonzero"></path><path stroke="#ffffff" stroke-width="1.0" stroke-linejoin="round" stroke-linecap="butt" d="m37.280838 522.90027l258.48822 0l0 53.322815l-258.48822 0z" fill-rule="nonzero"></path><path fill="#ffffff" d="m59.26722 560.3098l0 -17.421875l4.609375 0l0 2.046875l-2.140625 0l0 13.328125l2.140625 0l0 2.046875l-4.609375 0zm6.228302 -3.828125l0 -13.59375l4.421875 0q2.5 0 3.265625 0.203125q1.15625 0.296875 1.9375 1.328125q0.796875 1.015625 0.796875 2.640625q0 1.25 -0.453125 2.109375q-0.453125 0.859375 -1.15625 1.34375q-0.703125 0.484375 -1.421875 0.640625q-0.984375 0.203125 -2.84375 0.203125l-1.796875 0l0 5.125l-2.75 0zm2.75 -11.296875l0 3.859375l1.5 0q1.625 0 2.171875 -0.21875q0.546875 -0.21875 0.859375 -0.671875q0.3125 -0.453125 0.3125 -1.046875q0 -0.75 -0.4375 -1.234375q-0.4375 -0.484375 -1.09375 -0.59375q-0.5 -0.09375 -1.984375 -0.09375l-1.328125 0zm18.396698 6.296875l2.671875 0.84375q-0.609375 2.21875 -2.046875 3.3125q-1.421875 1.078125 -3.609375 1.078125q-2.703125 0 -4.453125 -1.84375q-1.734375 -1.859375 -1.734375 -5.078125q0 -3.390625 1.75 -5.265625q1.75 -1.875 4.609375 -1.875q2.5 0 4.046875 1.46875q0.9375 0.875 1.390625 2.5l-2.71875 0.65625q-0.234375 -1.0625 -1.0 -1.671875q-0.765625 -0.609375 -1.859375 -0.609375q-1.515625 0 -2.453125 1.09375q-0.9375 1.078125 -0.9375 3.5q0 2.578125 0.921875 3.6875q0.921875 1.09375 2.40625 1.09375q1.109375 0 1.890625 -0.6875q0.78125 -0.703125 1.125 -2.203125zm5.254196 -2.25l0 -2.609375l2.609375 0l0 2.609375l-2.609375 0zm0 7.25l0 -2.609375l2.609375 0l0 2.609375l-2.609375 0zm9.536606 0l4.640625 -7.09375l-4.203125 -6.5l3.203125 0l2.734375 4.359375l2.671875 -4.359375l3.1875 0l-4.234375 6.59375l4.640625 7.0l-3.3125 0l-3.015625 -4.703125l-3.015625 4.703125l-3.296875 0zm18.501877 -1.546875l0 -2.625l6.515625 -2.546875l-6.515625 -2.546875l0 -2.59375l9.343758 4.03125l0 2.21875l-9.343758 4.0625zm18.250145 -5.796875q-1.015625 -0.421875 -1.484375 -1.171875q-0.453125 -0.75 -0.453125 -1.640625q0 -1.515625 1.0625 -2.5q1.0625 -1.0 3.03125 -1.0q1.9375 0 3.0 1.0q1.078125 0.984375 1.078125 2.5q0 0.953125 -0.5 1.6875q-0.484375 0.734375 -1.375 1.125q1.125 0.453125 1.71875 1.328125q0.59375 0.875 0.59375 2.015625q0 1.890625 -1.203125 3.0625q-1.203125 1.171875 -3.203125 1.171875q-1.859375 0 -3.078125 -0.96875q-1.46875 -1.15625 -1.46875 -3.15625q0 -1.09375 0.546875 -2.015625q0.546875 -0.9375 1.734375 -1.4375zm0.53125 -2.625q0 0.78125 0.4375 1.21875q0.453125 0.4375 1.1875 0.4375q0.734375 0 1.171875 -0.4375q0.453125 -0.4375 0.453125 -1.21875q0 -0.734375 -0.4375 -1.171875q-0.4375 -0.453125 -1.171875 -0.453125q-0.75 0 -1.203125 0.453125q-0.4375 0.4375 -0.4375 1.171875zm-0.234375 5.828125q0 1.078125 0.546875 1.6875q0.546875 0.59375 1.375 0.59375q0.8125 0 1.34375 -0.578125q0.53125 -0.578125 0.53125 -1.671875q0 -0.953125 -0.546875 -1.53125q-0.53125 -0.578125 -1.359375 -0.578125q-0.953125 0 -1.421875 0.65625q-0.46875 0.65625 -0.46875 1.421875zm12.250717 -9.515625q1.96875 0 3.078125 1.40625q1.328125 1.671875 1.328125 5.546875q0 3.859375 -1.328125 5.546875q-1.109375 1.390625 -3.078125 1.390625q-1.984375 0 -3.203125 -1.53125q-1.21875 -1.53125 -1.21875 -5.4375q0 -3.84375 1.34375 -5.53125q1.09375 -1.390625 3.078125 -1.390625zm0 2.15625q-0.484375 0 -0.859375 0.3125q-0.359375 0.296875 -0.5625 1.078125q-0.265625 1.015625 -0.265625 3.40625q0 2.390625 0.234375 3.28125q0.25 0.890625 0.609375 1.1875q0.359375 0.296875 0.84375 0.296875q0.46875 0 0.828125 -0.296875q0.375 -0.296875 0.59375 -1.078125q0.265625 -1.0 0.265625 -3.390625q0 -2.390625 -0.25 -3.28125q-0.234375 -0.90625 -0.609375 -1.203125q-0.359375 -0.3125 -0.828125 -0.3125zm23.76213 9.84375l-1.578125 2.015625q-1.171875 -0.578125 -2.234375 -1.5625q-0.828125 0.734375 -1.75 1.09375q-0.921875 0.34375 -2.203125 0.34375q-2.5468597 0 -3.8281097 -1.421875q-1.0 -1.109375 -1.0 -2.546875q0 -1.296875 0.78125 -2.34375q0.78125 -1.046875 2.328125 -1.8125q-0.6875 -0.828125 -1.046875 -1.578125q-0.34375 -0.75 -0.34375 -1.40625q0 -1.234375 0.984375 -2.09375q0.98435974 -0.859375 2.8124847 -0.859375q1.765625 0 2.75 0.90625q1.0 0.890625 1.0 2.1875q0 0.828125 -0.5 1.578125q-0.484375 0.734375 -1.984375 1.671875l1.90625 2.5q0.328125 -0.59375 0.5625 -1.5625l2.359375 0.546875q-0.34375 1.25 -0.609375 1.828125q-0.265625 0.578125 -0.5625 0.96875q0.4375 0.40625 1.125 0.90625q0.703125 0.484375 1.03125 0.640625zm-7.109375 -7.40625l0.703125 -0.53125q0.78125 -0.609375 0.78125 -1.203125q0 -0.5 -0.375 -0.84375q-0.375 -0.359375 -1.015625 -0.359375q-0.609375 0 -0.96875 0.3125q-0.359375 0.3125 -0.359375 0.71875q0 0.484375 0.59375 1.171875l0.640625 0.734375zm-1.015625 2.84375q-0.90625 0.453125 -1.3593597 1.09375q-0.4375 0.640625 -0.4375 1.296875q0 0.84375 0.546875 1.390625q0.56248474 0.53125 1.4843597 0.53125q0.625 0 1.1875 -0.234375q0.5625 -0.25 1.234375 -0.8125l-2.65625 -3.265625zm21.597961 4.5625l-1.578125 2.015625q-1.171875 -0.578125 -2.234375 -1.5625q-0.828125 0.734375 -1.75 1.09375q-0.921875 0.34375 -2.203125 0.34375q-2.546875 0 -3.828125 -1.421875q-1.0 -1.109375 -1.0 -2.546875q0 -1.296875 0.78125 -2.34375q0.78125 -1.046875 2.328125 -1.8125q-0.6875 -0.828125 -1.046875 -1.578125q-0.34375 -0.75 -0.34375 -1.40625q0 -1.234375 0.984375 -2.09375q0.984375 -0.859375 2.8125 -0.859375q1.765625 0 2.75 0.90625q1.0 0.890625 1.0 2.1875q0 0.828125 -0.5 1.578125q-0.484375 0.734375 -1.984375 1.671875l1.90625 2.5q0.328125 -0.59375 0.5625 -1.5625l2.359375 0.546875q-0.34375 1.25 -0.609375 1.828125q-0.265625 0.578125 -0.5625 0.96875q0.4375 0.40625 1.125 0.90625q0.703125 0.484375 1.03125 0.640625zm-7.109375 -7.40625l0.703125 -0.53125q0.78125 -0.609375 0.78125 -1.203125q0 -0.5 -0.375 -0.84375q-0.375 -0.359375 -1.015625 -0.359375q-0.609375 0 -0.96875 0.3125q-0.359375 0.3125 -0.359375 0.71875q0 0.484375 0.59375 1.171875l0.640625 0.734375zm-1.015625 2.84375q-0.90625 0.453125 -1.359375 1.09375q-0.4375 0.640625 -0.4375 1.296875q0 0.84375 0.546875 1.390625q0.5625 0.53125 1.484375 0.53125q0.625 0 1.1875 -0.234375q0.5625 -0.25 1.234375 -0.8125l-2.65625 -3.265625zm13.359375 6.21875l4.640625 -7.09375l-4.203125 -6.5l3.203125 0l2.734375 4.359375l2.671875 -4.359375l3.1875 0l-4.234375 6.59375l4.640625 7.0l-3.3125 0l-3.015625 -4.703125l-3.015625 4.703125l-3.296875 0zm18.408112 -7.578125l0 -2.390625l9.515625 0l0 2.390625l-9.515625 0zm0 4.125l0 -2.40625l9.515625 0l0 2.40625l-9.515625 0zm10.8949585 -4.125l0 -2.390625l9.515625 0l0 2.390625l-9.515625 0zm0 4.125l0 -2.40625l9.515625 0l0 2.40625l-9.515625 0zm24.906403 1.03125l0 2.421875l-9.140625 0q0.15625 -1.375 0.890625 -2.59375q0.75 -1.234375 2.9375 -3.265625q1.765625 -1.640625 2.15625 -2.234375q0.546875 -0.796875 0.546875 -1.59375q0 -0.875 -0.46875 -1.34375q-0.46875 -0.46875 -1.296875 -0.46875q-0.8125 0 -1.296875 0.5q-0.484375 0.484375 -0.5625 1.625l-2.59375 -0.25q0.234375 -2.15625 1.453125 -3.09375q1.21875 -0.9375 3.0625 -0.9375q2.015625 0 3.15625 1.09375q1.15625 1.078125 1.15625 2.6875q0 0.921875 -0.328125 1.75q-0.328125 0.828125 -1.046875 1.734375q-0.46875 0.609375 -1.703125 1.75q-1.234375 1.125 -1.5625 1.5q-0.328125 0.359375 -0.53125 0.71875l5.171875 0zm1.6100769 -1.078125l2.59375 -0.265625q0.109375 0.875 0.65625 1.390625q0.546875 0.515625 1.265625 0.515625q0.8125 0 1.375 -0.65625q0.578125 -0.671875 0.578125 -2.0q0 -1.25 -0.5625 -1.875q-0.5625 -0.625 -1.46875 -0.625q-1.109375 0 -2.0 0.984375l-2.125 -0.3125l1.34375 -7.078125l6.8906403 0l0 2.453125l-4.9218903 0l-0.40625 2.296875q0.875 -0.421875 1.78125 -0.421875q1.734375 0 2.9375153 1.265625q1.203125 1.25 1.203125 3.265625q0 1.671875 -0.96875 3.0q-1.3281403 1.796875 -3.6875153 1.796875q-1.875 0 -3.0625 -1.015625q-1.1875 -1.015625 -1.421875 -2.71875zm19.172623 -6.765625l-2.53125 0.28125q-0.09375 -0.78125 -0.484375 -1.15625q-0.375 -0.375 -1.0 -0.375q-0.828125 0 -1.40625 0.75q-0.5625 0.734375 -0.71875 3.078125q0.984375 -1.140625 2.421875 -1.140625q1.640625 0 2.796875 1.25q1.171875 1.234375 1.171875 3.203125q0 2.078125 -1.234375 3.34375q-1.21875 1.265625 -3.140625 1.265625q-2.0625 0 -3.390625 -1.59375q-1.3125 -1.609375 -1.3125 -5.25q0 -3.75 1.375 -5.390625q1.390625 -1.65625 3.59375 -1.65625q1.546875 0 2.5625 0.875q1.015625 0.859375 1.296875 2.515625zm-5.90625 5.6875q0 1.265625 0.578125 1.953125q0.59375 0.6875 1.34375 0.6875q0.71875 0 1.203125 -0.5625q0.484375 -0.5625 0.484375 -1.84375q0 -1.328125 -0.53125 -1.9375q-0.515625 -0.625 -1.296875 -0.625q-0.75 0 -1.265625 0.59375q-0.515625 0.578125 -0.515625 1.734375zm11.610077 -9.015625l0 17.421875l-4.609375 0l0 -2.046875l2.140625 0l0 -13.34375l-2.140625 0l0 -2.03125l4.609375 0z" fill-rule="nonzero"></path><path fill="#000000" fill-opacity="0.0" d="m37.280838 636.06036l258.48822 0l0 53.322815l-258.48822 0z" fill-rule="nonzero"></path><path stroke="#ffffff" stroke-width="1.0" stroke-linejoin="round" stroke-linecap="butt" d="m37.280838 636.06036l258.48822 0l0 53.322815l-258.48822 0z" fill-rule="nonzero"></path><path fill="#ffffff" d="m115.05315 669.6418l0 -13.59375l5.78125 0q2.1875 0 3.171875 0.359375q0.984375 0.359375 1.578125 1.296875q0.59375 0.9375 0.59375 2.15625q0 1.53125 -0.90625 2.53125q-0.890625 0.984375 -2.6875 1.25q0.890625 0.515625 1.46875 1.140625q0.578125 0.625 1.5625 2.203125l1.671875 2.65625l-3.296875 0l-1.984375 -2.953125q-1.046875 -1.59375 -1.4375 -2.0q-0.390625 -0.421875 -0.828125 -0.5625q-0.4375 -0.15625 -1.390625 -0.15625l-0.546875 0l0 5.671875l-2.75 0zm2.75 -7.84375l2.03125 0q1.96875 0 2.453125 -0.171875q0.5 -0.171875 0.78125 -0.578125q0.28125 -0.40625 0.28125 -1.015625q0 -0.6875 -0.375 -1.109375q-0.359375 -0.421875 -1.03125 -0.53125q-0.328125 -0.046875 -2.0 -0.046875l-2.140625 0l0 3.453125zm16.394821 4.703125l2.609375 0.4375q-0.5 1.4375 -1.59375 2.1875q-1.078125 0.734375 -2.703125 0.734375q-2.5625 0 -3.796875 -1.671875q-0.96875 -1.34375 -0.96875 -3.40625q0 -2.4375 1.265625 -3.828125q1.28125 -1.390625 3.25 -1.390625q2.1875 0 3.453125 1.453125q1.28125 1.453125 1.234375 4.453125l-6.53125 0q0.015625 1.15625 0.625 1.8125q0.609375 0.640625 1.5 0.640625q0.609375 0 1.03125 -0.328125q0.421875 -0.34375 0.625 -1.09375zm0.15625 -2.625q-0.03125 -1.140625 -0.59375 -1.71875q-0.546875 -0.59375 -1.34375 -0.59375q-0.859375 0 -1.40625 0.625q-0.5625 0.609375 -0.546875 1.6875l3.890625 0zm9.031967 -4.09375l0 2.078125l-1.78125 0l0 3.984375q0 1.203125 0.046875 1.40625q0.0625 0.1875 0.234375 0.328125q0.1875 0.125 0.453125 0.125q0.359375 0 1.046875 -0.25l0.21875 2.015625q-0.90625 0.390625 -2.0625 0.390625q-0.703125 0 -1.265625 -0.234375q-0.5625 -0.234375 -0.828125 -0.609375q-0.265625 -0.375 -0.375 -1.015625q-0.078125 -0.453125 -0.078125 -1.84375l0 -4.296875l-1.203125 0l0 -2.078125l1.203125 0l0 -1.953125l2.609375 -1.515625l0 3.46875l1.78125 0zm8.181427 9.859375l0 -1.46875q-0.53125 0.78125 -1.40625 1.234375q-0.875 0.453125 -1.859375 0.453125q-0.984375 0 -1.78125 -0.4375q-0.78125 -0.4375 -1.140625 -1.21875q-0.34375 -0.796875 -0.34375 -2.1875l0 -6.234375l2.609375 0l0 4.53125q0 2.078125 0.140625 2.546875q0.140625 0.46875 0.515625 0.75q0.390625 0.265625 0.96875 0.265625q0.671875 0 1.203125 -0.359375q0.53125 -0.375 0.71875 -0.90625q0.1875 -0.546875 0.1875 -2.671875l0 -4.15625l2.609375 0l0 9.859375l-2.421875 0zm7.411606 0l-2.609375 0l0 -9.859375l2.421875 0l0 1.40625q0.625 -0.984375 1.109375 -1.296875q0.5 -0.328125 1.140625 -0.328125q0.890625 0 1.71875 0.5l-0.8125 2.265625q-0.65625 -0.421875 -1.21875 -0.421875q-0.546875 0 -0.9375 0.296875q-0.375 0.296875 -0.59375 1.09375q-0.21875 0.78125 -0.21875 3.296875l0 3.046875zm13.729019 0l-2.609375 0l0 -5.03125q0 -1.59375 -0.171875 -2.0625q-0.15625 -0.46875 -0.53125 -0.71875q-0.375 -0.265625 -0.90625 -0.265625q-0.6875 0 -1.234375 0.375q-0.53125 0.359375 -0.734375 0.984375q-0.1875 0.609375 -0.1875 2.25l0 4.46875l-2.609375 0l0 -9.859375l2.421875 0l0 1.453125q1.296875 -1.671875 3.25 -1.671875q0.859375 0 1.578125 0.3125q0.71875 0.3125 1.078125 0.796875q0.359375 0.484375 0.5 1.09375q0.15625 0.609375 0.15625 1.75l0 6.125zm10.68866 0l0 -11.296875l-4.03125 0l0 -2.296875l10.8125 0l0 2.296875l-4.03125 0l0 11.296875l-2.75 0zm10.817856 0l-2.609375 0l0 -9.859375l2.421875 0l0 1.40625q0.625 -0.984375 1.109375 -1.296875q0.5 -0.328125 1.140625 -0.328125q0.890625 0 1.71875 0.5l-0.8125 2.265625q-0.65625 -0.421875 -1.21875 -0.421875q-0.546875 0 -0.9375 0.296875q-0.375 0.296875 -0.59375 1.09375q-0.21875 0.78125 -0.21875 3.296875l0 3.046875zm11.244644 0l0 -1.46875q-0.53125 0.78125 -1.40625 1.234375q-0.875 0.453125 -1.859375 0.453125q-0.984375 0 -1.78125 -0.4375q-0.78125 -0.4375 -1.140625 -1.21875q-0.34375 -0.796875 -0.34375 -2.1875l0 -6.234375l2.609375 0l0 4.53125q0 2.078125 0.140625 2.546875q0.140625 0.46875 0.515625 0.75q0.390625 0.265625 0.96875 0.265625q0.671875 0 1.203125 -0.359375q0.53125 -0.375 0.71875 -0.90625q0.1875 -0.546875 0.1875 -2.671875l0 -4.15625l2.609375 0l0 9.859375l-2.421875 0zm10.614731 -3.140625l2.609375 0.4375q-0.5 1.4375 -1.59375 2.1875q-1.078125 0.734375 -2.703125 0.734375q-2.5625 0 -3.796875 -1.671875q-0.96875 -1.34375 -0.96875 -3.40625q0 -2.4375 1.265625 -3.828125q1.28125 -1.390625 3.25 -1.390625q2.1875 0 3.453125 1.453125q1.28125 1.453125 1.234375 4.453125l-6.53125 0q0.015625 1.15625 0.625 1.8125q0.609375 0.640625 1.5 0.640625q0.609375 0 1.03125 -0.328125q0.421875 -0.34375 0.625 -1.09375zm0.15625 -2.625q-0.03125 -1.140625 -0.59375 -1.71875q-0.546875 -0.59375 -1.34375 -0.59375q-0.859375 0 -1.40625 0.625q-0.5625 0.609375 -0.546875 1.6875l3.890625 0z" fill-rule="nonzero"></path><path fill="#000000" fill-opacity="0.0" d="m371.30185 636.06036l254.01572 0l0 53.322815l-254.01572 0z" fill-rule="nonzero"></path><path stroke="#ffffff" stroke-width="1.0" stroke-linejoin="round" stroke-linecap="butt" d="m371.30185 636.06036l254.01572 0l0 53.322815l-254.01572 0z" fill-rule="nonzero"></path><path fill="#ffffff" d="m443.19867 669.6418l0 -13.59375l5.78125 0q2.1875 0 3.171875 0.359375q0.984375 0.359375 1.578125 1.296875q0.59375 0.9375 0.59375 2.15625q0 1.53125 -0.90625 2.53125q-0.890625 0.984375 -2.6875 1.25q0.890625 0.515625 1.46875 1.140625q0.578125 0.625 1.5625 2.203125l1.671875 2.65625l-3.296875 0l-1.984375 -2.953125q-1.046875 -1.59375 -1.4375 -2.0q-0.390625 -0.421875 -0.828125 -0.5625q-0.4375 -0.15625 -1.390625 -0.15625l-0.546875 0l0 5.671875l-2.75 0zm2.75 -7.84375l2.03125 0q1.96875 0 2.453125 -0.171875q0.5 -0.171875 0.78125 -0.578125q0.28125 -0.40625 0.28125 -1.015625q0 -0.6875 -0.375 -1.109375q-0.359375 -0.421875 -1.03125 -0.53125q-0.328125 -0.046875 -2.0 -0.046875l-2.140625 0l0 3.453125zm16.394836 4.703125l2.609375 0.4375q-0.5 1.4375 -1.59375 2.1875q-1.078125 0.734375 -2.703125 0.734375q-2.5625 0 -3.796875 -1.671875q-0.96875 -1.34375 -0.96875 -3.40625q0 -2.4375 1.265625 -3.828125q1.28125 -1.390625 3.25 -1.390625q2.1875 0 3.453125 1.453125q1.28125 1.453125 1.234375 4.453125l-6.53125 0q0.015625 1.15625 0.625 1.8125q0.609375 0.640625 1.5 0.640625q0.609375 0 1.03125 -0.328125q0.421875 -0.34375 0.625 -1.09375zm0.15625 -2.625q-0.03125 -1.140625 -0.59375 -1.71875q-0.546875 -0.59375 -1.34375 -0.59375q-0.859375 0 -1.40625 0.625q-0.5625 0.609375 -0.546875 1.6875l3.890625 0zm9.031952 -4.09375l0 2.078125l-1.78125 0l0 3.984375q0 1.203125 0.046875 1.40625q0.0625 0.1875 0.234375 0.328125q0.1875 0.125 0.453125 0.125q0.359375 0 1.046875 -0.25l0.21875 2.015625q-0.90625 0.390625 -2.0625 0.390625q-0.703125 0 -1.265625 -0.234375q-0.5625 -0.234375 -0.828125 -0.609375q-0.265625 -0.375 -0.375 -1.015625q-0.078125 -0.453125 -0.078125 -1.84375l0 -4.296875l-1.203125 0l0 -2.078125l1.203125 0l0 -1.953125l2.609375 -1.515625l0 3.46875l1.78125 0zm8.181427 9.859375l0 -1.46875q-0.53125 0.78125 -1.40625 1.234375q-0.875 0.453125 -1.859375 0.453125q-0.984375 0 -1.78125 -0.4375q-0.78125 -0.4375 -1.140625 -1.21875q-0.34375 -0.796875 -0.34375 -2.1875l0 -6.234375l2.609375 0l0 4.53125q0 2.078125 0.140625 2.546875q0.140625 0.46875 0.515625 0.75q0.390625 0.265625 0.96875 0.265625q0.671875 0 1.203125 -0.359375q0.53125 -0.375 0.71875 -0.90625q0.1875 -0.546875 0.1875 -2.671875l0 -4.15625l2.609375 0l0 9.859375l-2.421875 0zm7.411621 0l-2.609375 0l0 -9.859375l2.421875 0l0 1.40625q0.625 -0.984375 1.109375 -1.296875q0.5 -0.328125 1.140625 -0.328125q0.890625 0 1.71875 0.5l-0.8125 2.265625q-0.65625 -0.421875 -1.21875 -0.421875q-0.546875 0 -0.9375 0.296875q-0.375 0.296875 -0.59375 1.09375q-0.21875 0.78125 -0.21875 3.296875l0 3.046875zm13.729034 0l-2.6094055 0l0 -5.03125q0 -1.59375 -0.171875 -2.0625q-0.15625 -0.46875 -0.53125 -0.71875q-0.375 -0.265625 -0.90625 -0.265625q-0.6875 0 -1.234375 0.375q-0.53125 0.359375 -0.734375 0.984375q-0.1875 0.609375 -0.1875 2.25l0 4.46875l-2.609375 0l0 -9.859375l2.421875 0l0 1.453125q1.296875 -1.671875 3.25 -1.671875q0.859375 0 1.578125 0.3125q0.7187805 0.3125 1.0781555 0.796875q0.359375 0.484375 0.5 1.09375q0.15625 0.609375 0.15625 1.75l0 6.125zm7.6574097 0l0 -13.59375l9.3124695 0l0 2.296875l-6.5780945 0l0 3.21875l5.6874695 0l0 2.296875l-5.6874695 0l0 5.78125l-2.734375 0zm13.302216 -6.84375l-2.359375 -0.4375q0.390625 -1.421875 1.359375 -2.109375q0.984375 -0.6875 2.90625 -0.6875q1.734375 0 2.59375 0.421875q0.859375 0.40625 1.203125 1.046875q0.34375 0.625 0.34375 2.328125l-0.03125 3.046875q0 1.296875 0.125 1.921875q0.125 0.609375 0.46875 1.3125l-2.578125 0q-0.09375 -0.265625 -0.25 -0.765625q-0.0625 -0.234375 -0.09375 -0.3125q-0.65625 0.65625 -1.421875 0.984375q-0.765625 0.3125 -1.625 0.3125q-1.515625 0 -2.40625 -0.8125q-0.875 -0.828125 -0.875 -2.09375q0 -0.84375 0.390625 -1.484375q0.40625 -0.65625 1.125 -1.0q0.71875 -0.359375 2.078125 -0.625q1.828125 -0.328125 2.53125 -0.625l0 -0.265625q0 -0.75 -0.375 -1.0625q-0.359375 -0.328125 -1.390625 -0.328125q-0.703125 0 -1.09375 0.28125q-0.390625 0.265625 -0.625 0.953125zm3.484375 2.109375q-0.5 0.171875 -1.59375 0.40625q-1.078125 0.234375 -1.40625 0.453125q-0.515625 0.359375 -0.515625 0.921875q0 0.546875 0.40625 0.953125q0.40625 0.390625 1.046875 0.390625q0.703125 0 1.34375 -0.46875q0.46875 -0.359375 0.625 -0.859375q0.09375 -0.34375 0.09375 -1.28125l0 -0.515625zm4.9382324 4.734375l0 -13.59375l2.609375 0l0 13.59375l-2.609375 0zm4.2770386 -2.8125l2.609375 -0.390625q0.171875 0.75 0.671875 1.15625q0.515625 0.390625 1.4375 0.390625q1.0 0 1.515625 -0.375q0.34375 -0.265625 0.34375 -0.703125q0 -0.296875 -0.1875 -0.484375q-0.1875 -0.1875 -0.875 -0.34375q-3.140625 -0.703125 -4.0 -1.265625q-1.15625 -0.796875 -1.15625 -2.21875q0 -1.28125 1.0 -2.15625q1.015625 -0.875 3.140625 -0.875q2.03125 0 3.0 0.65625q0.984375 0.65625 1.359375 1.953125l-2.453125 0.453125q-0.15625 -0.578125 -0.609375 -0.875q-0.4375 -0.3125 -1.25 -0.3125q-1.03125 0 -1.46875 0.296875q-0.296875 0.203125 -0.296875 0.515625q0 0.28125 0.25 0.484375q0.359375 0.25 2.4375 0.734375q2.078125 0.46875 2.90625 1.15625q0.828125 0.6875 0.828125 1.9375q0 1.359375 -1.140625 2.328125q-1.125 0.96875 -3.34375 0.96875q-2.015625 0 -3.1875 -0.8125q-1.171875 -0.8125 -1.53125 -2.21875zm16.985107 -0.328125l2.609375 0.4375q-0.5 1.4375 -1.59375 2.1875q-1.078125 0.734375 -2.703125 0.734375q-2.5625 0 -3.796875 -1.671875q-0.96875 -1.34375 -0.96875 -3.40625q0 -2.4375 1.265625 -3.828125q1.28125 -1.390625 3.25 -1.390625q2.1875 0 3.453125 1.453125q1.28125 1.453125 1.234375 4.453125l-6.53125 0q0.015625 1.15625 0.625 1.8125q0.609375 0.640625 1.5 0.640625q0.609375 0 1.03125 -0.328125q0.421875 -0.34375 0.625 -1.09375zm0.15625 -2.625q-0.03125 -1.140625 -0.59375 -1.71875q-0.546875 -0.59375 -1.34375 -0.59375q-0.859375 0 -1.40625 0.625q-0.5625 0.609375 -0.546875 1.6875l3.890625 0z" fill-rule="nonzero"></path><path fill="#000000" fill-opacity="0.0" d="m612.6483 204.96326l0 48.591614l-258.48822 0l0 48.605225" fill-rule="nonzero"></path><path stroke="#ffffff" stroke-width="4.0" stroke-linejoin="round" stroke-linecap="butt" d="m612.6483 204.96326l0 48.591614l-258.48822 0l0 24.605225" fill-rule="evenodd"></path><path fill="#ffffff" stroke="#ffffff" stroke-width="4.0" stroke-linecap="butt" d="m347.55316 278.1601l6.6069336 18.152405l6.6069336 -18.152405z" fill-rule="evenodd"></path><path fill="#000000" fill-opacity="0.0" d="m354.1601 355.46982l0 83.714874l-187.62204 0l0 83.7182" fill-rule="nonzero"></path><path stroke="#ffffff" stroke-width="4.0" stroke-linejoin="round" stroke-linecap="butt" d="m354.1601 355.46982l0 83.71484l-187.62204 0l0 59.71823" fill-rule="evenodd"></path><path fill="#ffffff" stroke="#ffffff" stroke-width="4.0" stroke-linecap="butt" d="m159.93112 498.9029l6.6069336 18.152405l6.6069336 -18.152405z" fill-rule="evenodd"></path><path fill="#000000" fill-opacity="0.0" d="m354.1601 355.46982l0 83.714874l144.1575 0l0 83.7182" fill-rule="nonzero"></path><path stroke="#ffffff" stroke-width="4.0" stroke-linejoin="round" stroke-linecap="butt" d="m354.1601 355.46982l0 83.71484l144.1575 0l0 59.71823" fill-rule="evenodd"></path><path fill="#ffffff" stroke="#ffffff" stroke-width="4.0" stroke-linecap="butt" d="m491.71066 498.9029l6.6069336 18.152405l6.6069336 -18.152405z" fill-rule="evenodd"></path><path fill="#000000" fill-opacity="0.0" d="m166.52493 576.2231l0 29.918884l0.06298828 0l0 29.923645" fill-rule="nonzero"></path><path stroke="#ffffff" stroke-width="4.0" stroke-linejoin="round" stroke-linecap="butt" d="m166.52493 576.2231l0 29.918884l0.06298828 0l0 5.923645" fill-rule="evenodd"></path><path fill="#ffffff" stroke="#ffffff" stroke-width="4.0" stroke-linecap="butt" d="m159.981 612.0656l6.6069183 18.152405l6.6069336 -18.152405z" fill-rule="evenodd"></path><path fill="#000000" fill-opacity="0.0" d="m498.30972 576.2231l0 29.918884l0.06298828 0l0 29.923645" fill-rule="nonzero"></path><path stroke="#ffffff" stroke-width="4.0" stroke-linejoin="round" stroke-linecap="butt" d="m498.30972 576.2231l0 29.918884l0.06298828 0l0 5.923645" fill-rule="evenodd"></path><path fill="#ffffff" stroke="#ffffff" stroke-width="4.0" stroke-linecap="butt" d="m491.76578 612.0656l6.6069336 18.152405l6.6069336 -18.152405z" fill-rule="evenodd"></path><path fill="#000000" fill-opacity="0.0" d="m741.8924 355.46982l0 307.2441l-116.566956 0" fill-rule="nonzero"></path><path stroke="#ffffff" stroke-width="4.0" stroke-linejoin="round" stroke-linecap="butt" d="m741.8924 355.46982l0 307.2441l-92.566956 0" fill-rule="evenodd"></path><path fill="#ffffff" stroke="#ffffff" stroke-width="4.0" stroke-linecap="butt" d="m649.32544 656.107l-18.152344 6.6069336l18.152344 6.6069336z" fill-rule="evenodd"></path></g></svg>

